<?xml version="1.0" encoding="UTF-8"?>
<!DOCTYPE svg PUBLIC "-//W3C//DTD SVG 1.1//EN" "http://www.w3.org/Graphics/SVG/1.1/DTD/svg11.dtd">
<svg xmlns="http://www.w3.org/2000/svg" version="1.1" width="162px" height="146px" style="shape-rendering:geometricPrecision; text-rendering:geometricPrecision; image-rendering:optimizeQuality; fill-rule:evenodd; clip-rule:evenodd" xmlns:xlink="http://www.w3.org/1999/xlink">
<g><path style="opacity:0.97" fill="#ce354c" d="M -0.5,87.5 C -0.5,79.5 -0.5,71.5 -0.5,63.5C 8.45945,19.3417 35.1261,1.67506 79.5,10.5C 113.292,4.79454 135.792,18.1279 147,50.5C 154.847,73.6776 152.514,95.6776 140,116.5C 125.524,132.665 107.357,139.832 85.5,138C 38.3702,152.276 9.70349,135.443 -0.5,87.5 Z M 104.5,29.5 C 112.646,32.4752 118.813,37.8085 123,45.5C 133.279,64.933 133.946,84.5997 125,104.5C 120.338,110.999 114.171,115.332 106.5,117.5C 108.857,112.428 110.19,107.095 110.5,101.5C 103.825,101.334 97.1583,101.5 90.5,102C 88.7931,107.256 85.9598,111.756 82,115.5C 76.3431,112.343 71.8431,108.009 68.5,102.5C 62.6118,104.148 56.6118,105.148 50.5,105.5C 51.8672,112.735 55.2005,118.901 60.5,124C 40.9044,124.094 28.4044,114.594 23,95.5C 19.1688,79.957 19.8354,64.6237 25,49.5C 29.9414,37.8755 38.4414,30.7088 50.5,28C 44.0162,36.7844 41.1829,46.6177 42,57.5C 48.1505,56.2236 54.3172,54.8902 60.5,53.5C 62.1875,43.4499 67.3542,35.7832 76,30.5C 83.4762,34.8083 87.9762,41.1417 89.5,49.5C 96.5,49.5 103.5,49.5 110.5,49.5C 110.213,42.2751 108.213,35.6084 104.5,29.5 Z"/></g>
</svg>
